<svg xmlns="http://www.w3.org/2000/svg" data-name="Layer 1" viewBox="0 0 512 512"><path fill="#fdd402" d="M335.72551,383.99072a253.251,253.251,0,0,1-83,55.62988q-3.765,1.545-7.56,2.94006c-47.66,17.58-97.62,18.31995-139.85,1.31995a65.59565,65.59565,0,0,0-23.75995-4.73l-21.7-.23a35.57074,35.57074,0,0,1-35.03-35.03l-.23-21.71a65.58313,65.58313,0,0,0-4.73-23.75c-28.52-70.83008-7.11-163.41992,59.89-230.41992,64.75-64.74,153.38-86.92,223.19-62.6001a32.40714,32.40714,0,0,0,27.73-2.90991l1.66-1.03a35.959,35.959,0,0,1,44.24,5.5l20.19,20.2a35.91765,35.91765,0,0,1,5.5,44.23l-1.02,1.67a32.36845,32.36845,0,0,0-2.91,27.73q2.28,6.54,4.01,13.29a170.12485,170.12485,0,0,1,3.45,16.89C415.64549,254.8606,391.44548,328.27075,335.72551,383.99072Z"/><circle cx="351.955" cy="303.701" r="152.5" fill="#fdeb96"/><circle cx="351.955" cy="303.701" r="152.5" fill="#fdde47"/><path fill="#fff4ca" d="M354.45549 269.20069L333.91325 195.07a7 7 0 0 1 6.74579-8.86931h27.5929a7 7 0 0 1 6.74579 8.86931zM328.29254 280.03773L261.34867 242.145a7 7 0 0 1-1.50156-11.04155l19.51113-19.51113a7 7 0 0 1 11.04155 1.50156zM317.45549 306.20069L243.3248 326.74292a7 7 0 0 1-8.86931-6.74579v-27.5929a7 7 0 0 1 8.86931-6.74579zM328.29254 332.36364L290.39978 399.3075a7 7 0 0 1-11.04155 1.50156l-19.51113-19.51113a7 7 0 0 1 1.50156-11.04155zM354.45549 343.20069l20.54224 74.13069a7 7 0 0 1-6.74579 8.86931H340.659a7 7 0 0 1-6.74579-8.86931zM380.61844 332.36364l66.94387 37.89275a7 7 0 0 1 1.50156 11.04155l-19.51113 19.51113a7 7 0 0 1-11.04155-1.50156zM391.45549 306.20069l74.13069-20.54224a7 7 0 0 1 8.86931 6.74579v27.5929a7 7 0 0 1-8.86931 6.74579zM380.61844 280.03773l37.89275-66.94387a7 7 0 0 1 11.04155-1.50156l19.51113 19.51113a7 7 0 0 1-1.50156 11.04155z"/><path d="M375.33691,285.33984a7.49991,7.49991,0,0,0,8.99756,1.22461L451.291,248.6709a14.49888,14.49888,0,0,0,3.11035-22.87207l-19.51465-19.51172a14.50231,14.50231,0,0,0-22.873,3.11084l-37.8999,66.94385A7.50032,7.50032,0,0,0,375.33691,285.33984Zm49.40723-67.98193,18.58594,18.583-42.82861,24.23877Zm-77.49854,53.84424a7.49991,7.49991,0,0,0,14.45508,0l20.5459-74.13037A14.50034,14.50034,0,0,0,368.272,178.69971H340.67432a14.50034,14.50034,0,0,0-13.97461,18.37207Zm20.37012-77.50244-13.14258,47.41895-13.14258-47.41895ZM333.60938,327.05957a7.50122,7.50122,0,0,0-8.99756-1.22461l-66.957,37.89355a14.49908,14.49908,0,0,0-3.10986,22.87207l19.51465,19.51074a14.37264,14.37264,0,0,0,10.21289,4.25,14.80146,14.80146,0,0,0,1.99463-.13574,14.39032,14.39032,0,0,0,10.66553-7.22363l37.8999-66.94434A7.50032,7.50032,0,0,0,333.60938,327.05957ZM284.20215,395.041l-18.58643-18.583,42.8291-24.23828ZM476.27344,280.86328a14.38612,14.38612,0,0,0-12.65234-2.43359l-74.14355,20.542a7.49974,7.49974,0,0,0,0,14.45508l74.144,20.543a14.61167,14.61167,0,0,0,3.90967.53516,14.51924,14.51924,0,0,0,14.46338-14.50879V292.40332A14.38822,14.38822,0,0,0,476.27344,280.86328Zm-9.27881,38.47656-47.42529-13.14062,47.42529-13.13965ZM257.65576,248.67139l66.95605,37.89307a7.50031,7.50031,0,0,0,10.2207-10.22266l-37.8999-66.94385a14.50188,14.50188,0,0,0-22.873-3.11035l-19.51465,19.51123a14.49911,14.49911,0,0,0,3.11084,22.87256Zm26.54639-31.31348,24.24268,42.82178-42.82861-24.23877ZM404.145,152.43848a24.69814,24.69814,0,0,1,3.5274-15.46l.99512-1.62988a43.20663,43.20663,0,0,0-6.57275-53.48193L381.89795,61.66357a43.28626,43.28626,0,0,0-53.50244-6.56738l-1.6499,1.02344a24.84809,24.84809,0,0,1-21.32471,2.20752c-36.19873-12.60986-76.98437-13.38867-117.94727-2.25244-41.69189,11.3335-80.78467,34.374-113.05225,66.63135C40.99756,156.124,17.5708,196.667,6.67383,239.95264c-10.73242,42.6333-8.59131,84.5708,6.19141,121.27686a57.83113,57.83113,0,0,1,4.18945,21.0293l.23,21.709a43.15569,43.15569,0,0,0,42.45654,42.45215l21.7002.22949a57.88588,57.88588,0,0,1,21.0459,4.1875,183.42661,183.42661,0,0,0,68.6499,12.90332c32.345-.002,65.94592-7.81958,97.97113-23.2063a159.08414,159.08414,0,0,0,82.86432,23.16528c88.23926,0,160.02734-71.77539,160.02734-160C512,233.73193,466.84515,174.11816,404.145,152.43848ZM108.0874,436.92188a72.8382,72.8382,0,0,0-26.48389-5.27246l-21.70117-.22949a28.06977,28.06977,0,0,1-27.61865-27.60937l-.23-21.71484a72.78707,72.78707,0,0,0-5.27344-26.46777c-28.17822-69.96777-4.77051-159.30859,58.24609-222.314,61.23047-61.21045,145.80469-85.084,215.46338-60.8208A39.79085,39.79085,0,0,0,334.64258,68.873l1.64941-1.02344a28.33779,28.33779,0,0,1,35.001,4.42285l20.19678,20.20313a28.2818,28.2818,0,0,1,4.40088,35.01514l-.99121,1.62354a39.45036,39.45036,0,0,0-5.83124,18.9342,159.90137,159.90137,0,0,0-37.09552-4.34875c-88.23926,0-160.02734,71.77539-160.02734,159.99951a159.81347,159.81347,0,0,0,62.74957,126.95142C205.0094,452.29468,152.20435,454.68384,108.0874,436.92188Zm243.88525,11.77734c-79.96826,0-145.02734-65.04687-145.02734-145s65.05908-144.99951,145.02734-144.99951S497,223.74609,497,303.69922,431.94092,448.69922,351.97266,448.69922Zm99.31787-84.97168L384.33447,325.835a7.50031,7.50031,0,0,0-10.2207,10.22266L412.01416,403.002a14.38859,14.38859,0,0,0,10.665,7.22363,14.79606,14.79606,0,0,0,1.99463.13574,14.37264,14.37264,0,0,0,10.21289-4.25l19.51514-19.51074a14.5,14.5,0,0,0-3.11133-22.873ZM424.74414,395.041l-24.24268-42.82129,42.8291,24.23828Zm-99.77783-88.8418a7.49914,7.49914,0,0,0-5.49756-7.22754l-74.144-20.542a14.50109,14.50109,0,0,0-18.373,13.97363v27.59277A14.51924,14.51924,0,0,0,241.415,334.50488a14.6152,14.6152,0,0,0,3.91016-.53516l74.14355-20.543A7.49914,7.49914,0,0,0,324.96631,306.19922Zm-83.01465,13.14063V293.05957L289.377,306.19922Zm119.749,21.85645a7.49991,7.49991,0,0,0-14.45508,0l-20.5459,74.13086a14.50034,14.50034,0,0,0,13.97461,18.37207H368.272a14.50034,14.50034,0,0,0,13.97461-18.37207Zm-20.37012,77.50293,13.14258-47.41992,13.14258,47.41992Z"/></svg>